<?xml version="1.0" encoding="utf-8"?>
<svg viewBox="0 0 26 32.5" fill="none" x="0px" y="0px" xmlns="http://www.w3.org/2000/svg">
  <path d="M 20.583 7.583 L 20.583 9.75 L 18.417 9.75 L 18.417 11.917 L 16.25 11.917 L 16.25 14.083 L 14.083 14.083 L 14.083 16.25 L 11.917 16.25 L 11.917 14.083 L 9.75 14.083 L 9.75 11.917 L 7.583 11.917 L 7.583 9.75 L 5.417 9.75 L 5.417 7.583 L 2.167 7.583 L 2.167 9.75 L 3.25 9.75 L 3.25 11.917 L 5.417 11.917 L 5.417 14.083 L 7.583 14.083 L 7.583 16.25 L 9.75 16.25 L 9.75 18.417 L 10.833 18.417 L 10.833 19.5 L 11.917 19.5 L 11.917 20.583 L 14.083 20.583 L 14.083 19.5 L 15.167 19.5 L 15.167 18.417 L 16.25 18.417 L 16.25 16.25 L 18.417 16.25 L 18.417 14.083 L 20.583 14.083 L 20.583 11.917 L 22.75 11.917 L 22.75 9.75 L 23.833 9.75 L 23.833 7.583 L 20.583 7.583 Z" fill="black" style="transform-box: fill-box; transform-origin: 50% 50%;" transform="matrix(0, 1, -1, 0, 0, 0)"/>
  <text x="0" y="41" fill="#000000" font-size="5px" font-weight="bold" font-family="'Helvetica Neue', Helvetica, Arial-Unicode, Arial, Sans-serif" style="white-space: pre;">Created by PRABHU PRASAD PRADHAN</text>
  <text x="0" y="46" fill="#000000" font-size="5px" font-weight="bold" font-family="'Helvetica Neue', Helvetica, Arial-Unicode, Arial, Sans-serif" style="white-space: pre;">from the Noun Project</text>
</svg>